<svg xmlns="http://www.w3.org/2000/svg" xmlns:xlink="http://www.w3.org/1999/xlink" xmlns:lucid="lucid" width="1374.93" height="1220"><g transform="translate(1.727172752509432 -80)" lucid:page-tab-id="0_0"><path d="M0 0h1870.87v1322.83H0z" fill="#fff"/><path d="M40 106a6 6 0 0 1 6-6h328a6 6 0 0 1 6 6v108a6 6 0 0 1-6 6H46a6 6 0 0 1-6-6z" stroke="#000" stroke-opacity="0" stroke-width="3" fill="#fff" fill-opacity="0"/><use xlink:href="#a" transform="matrix(1,0,0,1,45,105) translate(14.78395061728395 59.02777777777778)"/><use xlink:href="#b" transform="matrix(1,0,0,1,45,105) translate(99.78395061728394 59.02777777777778)"/><use xlink:href="#c" transform="matrix(1,0,0,1,45,105) translate(131.82098765432096 59.02777777777778)"/><use xlink:href="#d" transform="matrix(1,0,0,1,45,105) translate(216.75925925925924 59.02777777777778)"/><path d="M353.96 371.07a.75.75 0 0 1 .75-.75h997a.75.75 0 0 1 .76.75.75.75 0 0 1-.75.75h-997a.75.75 0 0 1-.74-.75z" stroke="#5e5e5e" stroke-width="1.5" fill="none"/><path d="M18.27 275.57a6 6 0 0 1 6-6H314a6 6 0 0 1 6 6V1274a6 6 0 0 1-6 6H24.27a6 6 0 0 1-6-6z" fill="none"/><path d="M320 1280c-5.52 0-10-4.48-10-10V784.78c0-5.52-4.48-10-10-10 5.52 0 10-4.47 10-10v-485.2c0-5.54 4.48-10 10-10" stroke="#5e5e5e" stroke-width="3" fill="none"/><use xlink:href="#e" transform="matrix(1,0,0,1,23.272827247490568,274.56617803622174) translate(33.65432098765433 504.94444444444446)"/><use xlink:href="#b" transform="matrix(1,0,0,1,23.272827247490568,274.56617803622174) translate(94.0246913580247 504.94444444444446)"/><use xlink:href="#f" transform="matrix(1,0,0,1,23.272827247490568,274.56617803622174) translate(126.06172839506173 504.94444444444446)"/><path d="M706.66 488.7a6 6 0 0 1 6-6h48a6 6 0 0 1 6 6v302.9a6 6 0 0 1-6 6h-48a6 6 0 0 1-6-6z" stroke="#5e5e5e" stroke-width="3" fill="#fff"/><path d="M726.66 488.7a6 6 0 0 1 6-6h8a6 6 0 0 1 6 6v297.24a6 6 0 0 1-6 6h-8a6 6 0 0 1-6-6z" stroke="#000" stroke-opacity="0" stroke-width="3" fill="#fff" fill-opacity="0"/><use xlink:href="#g" transform="matrix(1,0,0,1,731.660506085843,487.70341095179435) translate(0 21.11111111111112)"/><use xlink:href="#h" transform="matrix(1,0,0,1,731.660506085843,487.70341095179435) translate(0 47.777777777777786)"/><use xlink:href="#g" transform="matrix(1,0,0,1,731.660506085843,487.70341095179435) translate(0 74.44444444444446)"/><use xlink:href="#h" transform="matrix(1,0,0,1,731.660506085843,487.70341095179435) translate(0 101.11111111111111)"/><use xlink:href="#i" transform="matrix(1,0,0,1,731.660506085843,487.70341095179435) translate(0 127.7777777777778)"/><use xlink:href="#h" transform="matrix(1,0,0,1,731.660506085843,487.70341095179435) translate(0 154.44444444444446)"/><use xlink:href="#g" transform="matrix(1,0,0,1,731.660506085843,487.70341095179435) translate(0 181.11111111111111)"/><use xlink:href="#h" transform="matrix(1,0,0,1,731.660506085843,487.70341095179435) translate(0 207.77777777777777)"/><use xlink:href="#j" transform="matrix(1,0,0,1,731.660506085843,487.70341095179435) translate(0 234.44444444444443)"/><use xlink:href="#h" transform="matrix(1,0,0,1,731.660506085843,487.70341095179435) translate(0 261.1111111111111)"/><use xlink:href="#k" transform="matrix(1,0,0,1,731.660506085843,487.70341095179435) translate(0 287.77777777777777)"/><path d="M707.4 531.1a.75.75 0 0 1 .76-.75h57a.75.75 0 0 1 .75.75.75.75 0 0 1-.74.75h-57a.75.75 0 0 1-.75-.75zM707.4 580.87a.75.75 0 0 1 .76-.75h57a.75.75 0 0 1 .75.75.75.75 0 0 1-.74.75h-57a.75.75 0 0 1-.75-.75zM707.4 640.27a.75.75 0 0 1 .76-.75h57a.75.75 0 0 1 .75.75.75.75 0 0 1-.74.75h-57a.75.75 0 0 1-.75-.75zM707.4 693.97a.75.75 0 0 1 .76-.75h57a.75.75 0 0 1 .75.75.75.75 0 0 1-.74.75h-57a.75.75 0 0 1-.75-.75zM707.4 744.2a.75.75 0 0 1 .76-.75h57a.75.75 0 0 1 .75.75.75.75 0 0 1-.74.75h-57a.75.75 0 0 1-.75-.75z" stroke="#5e5e5e" stroke-width="1.5" fill="none"/><path d="M736.66 432.07v30.67M736.66 432.1v-1.03" stroke="#5e5e5e" stroke-width="2" fill="none"/><path d="M736.66 478l-4.63-14.26h9.27z" stroke="#5e5e5e" stroke-width="2" fill="#5e5e5e"/><path d="M868.33 487.2a6 6 0 0 1 6-6h48a6 6 0 0 1 6 6v87.67a6 6 0 0 1-6 6h-48a6 6 0 0 1-6-6z" stroke="#5e5e5e" stroke-width="3" fill="#fff"/><path d="M888.33 458.7a6 6 0 0 1 6-6h8a6 6 0 0 1 6 6v148a6 6 0 0 1-6 6h-8a6 6 0 0 1-6-6z" stroke="#000" stroke-opacity="0" stroke-width="3" fill="#fff" fill-opacity="0"/><use xlink:href="#g" transform="matrix(1,0,0,1,893.3302530429218,457.68625565468267) translate(0 52.77777777777778)"/><use xlink:href="#h" transform="matrix(1,0,0,1,893.3302530429218,457.68625565468267) translate(0 79.44444444444446)"/><use xlink:href="#k" transform="matrix(1,0,0,1,893.3302530429218,457.68625565468267) translate(0 106.11111111111111)"/><path d="M869.08 529.6a.75.75 0 0 1 .75-.75h57a.75.75 0 0 1 .75.75.75.75 0 0 1-.75.75h-57a.75.75 0 0 1-.75-.75z" stroke="#5e5e5e" stroke-width="1.5" fill="none"/><path d="M898.33 430.57v30.68M898.33 430.6v-1.03" stroke="#5e5e5e" stroke-width="2" fill="none"/><path d="M898.33 476.5l-4.64-14.26h9.27z" stroke="#5e5e5e" stroke-width="2" fill="#5e5e5e"/><path d="M1060 430.57v30.67M1060 430.6v-1.03" stroke="#5e5e5e" stroke-width="2" fill="none"/><path d="M1060 476.5l-4.64-14.26h9.28z" stroke="#5e5e5e" stroke-width="2" fill="#5e5e5e"/><path d="M656.66 317.07a6 6 0 0 1 6-6H1134a6 6 0 0 1 6 6v108a6 6 0 0 1-6 6H662.66a6 6 0 0 1-6-6z" stroke="#5e5e5e" stroke-width="3" fill="#fff"/><path d="M818.16 311.82a.75.75 0 0 1 .75.75v117a.75.75 0 0 1-.74.75.75.75 0 0 1-.75-.75v-117a.75.75 0 0 1 .76-.75zM978.16 311.82a.75.75 0 0 1 .75.75v117a.75.75 0 0 1-.74.75.75.75 0 0 1-.75-.75v-117a.75.75 0 0 1 .76-.75z" stroke="#5e5e5e" stroke-width="1.5" fill="none"/><path d="M660.88 317.07a6 6 0 0 1 6-6h139.56a6 6 0 0 1 6 6v108a6 6 0 0 1-6 6H666.88a6 6 0 0 1-6-6z" stroke="#000" stroke-opacity="0" stroke-width="3" fill="#fff" fill-opacity="0"/><use xlink:href="#l" transform="matrix(1,0,0,1,665.8797325432424,316.0661780362217) translate(6.2777777777777715 59.02777777777778)"/><path d="M820.88 317.07a6 6 0 0 1 6-6h139.56a6 6 0 0 1 6 6v108a6 6 0 0 1-6 6H826.88a6 6 0 0 1-6-6z" stroke="#000" stroke-opacity="0" stroke-width="3" fill="#fff" fill-opacity="0"/><use xlink:href="#m" transform="matrix(1,0,0,1,825.8797325432427,316.0661780362217) translate(12.450617283950606 59.02777777777778)"/><path d="M985.1 317.07a6 6 0 0 1 6-6h139.56a6 6 0 0 1 6 6v108a6 6 0 0 1-6 6H991.1a6 6 0 0 1-6-6z" stroke="#000" stroke-opacity="0" stroke-width="3" fill="#fff" fill-opacity="0"/><use xlink:href="#n" transform="matrix(1,0,0,1,990.0989590006417,316.0661780362217) translate(12.450617283950606 59.02777777777778)"/><path d="M400 106a6 6 0 0 1 6-6h788a6 6 0 0 1 6 6v108a6 6 0 0 1-6 6H406a6 6 0 0 1-6-6z" stroke="#5e5e5e" stroke-width="3" fill="#fff"/><path d="M561.5 100.75a.75.75 0 0 1 .75.75v117a.75.75 0 0 1-.75.75.75.75 0 0 1-.75-.75v-117a.75.75 0 0 1 .75-.75zM721.5 100.75a.75.75 0 0 1 .75.75v117a.75.75 0 0 1-.75.75.75.75 0 0 1-.75-.75v-117a.75.75 0 0 1 .75-.75z" stroke="#5e5e5e" stroke-width="1.5" fill="none"/><path d="M404.22 106a6 6 0 0 1 6-6h139.56a6 6 0 0 1 6 6v108a6 6 0 0 1-6 6H410.22a6 6 0 0 1-6-6z" stroke="#000" stroke-opacity="0" stroke-width="3" fill="#fff" fill-opacity="0"/><use xlink:href="#l" transform="matrix(1,0,0,1,409.21922645739926,105) translate(6.2777777777777715 59.02777777777778)"/><path d="M564.22 106a6 6 0 0 1 6-6h139.56a6 6 0 0 1 6 6v108a6 6 0 0 1-6 6H570.22a6 6 0 0 1-6-6z" stroke="#000" stroke-opacity="0" stroke-width="3" fill="#fff" fill-opacity="0"/><use xlink:href="#m" transform="matrix(1,0,0,1,569.2192264573995,105) translate(12.450617283950606 59.02777777777778)"/><path d="M728.44 106a6 6 0 0 1 6-6H874a6 6 0 0 1 6 6v108a6 6 0 0 1-6 6H734.44a6 6 0 0 1-6-6z" stroke="#000" stroke-opacity="0" stroke-width="3" fill="#fff" fill-opacity="0"/><use xlink:href="#n" transform="matrix(1,0,0,1,733.4384529147986,105) translate(12.450617283950606 59.02777777777778)"/><path d="M878.5 100.75a.75.75 0 0 1 .75.75v117a.75.75 0 0 1-.75.75.75.75 0 0 1-.75-.75v-117a.75.75 0 0 1 .75-.75zM1041.5 100.75a.75.75 0 0 1 .75.75v117a.75.75 0 0 1-.75.75.75.75 0 0 1-.75-.75v-117a.75.75 0 0 1 .75-.75z" stroke="#5e5e5e" stroke-width="1.5" fill="none"/><path d="M884.22 106a6 6 0 0 1 6-6h139.56a6 6 0 0 1 6 6v108a6 6 0 0 1-6 6H890.22a6 6 0 0 1-6-6z" stroke="#000" stroke-opacity="0" stroke-width="3" fill="#fff" fill-opacity="0"/><use xlink:href="#o" transform="matrix(1,0,0,1,889.2192264573989,105) translate(2.6049382716049365 59.02777777777778)"/><path d="M1045.07 106a6 6 0 0 1 6-6h139.56a6 6 0 0 1 6 6v108a6 6 0 0 1-6 6h-139.56a6 6 0 0 1-6-6z" stroke="#000" stroke-opacity="0" stroke-width="3" fill="#fff" fill-opacity="0"/><use xlink:href="#p" transform="matrix(1,0,0,1,1050.0666666666657,105) translate(-1.7160493827160508 59.44444444444444)"/><path d="M353.2 317.07a6 6 0 0 1 6-6h99.02a6 6 0 0 1 6 6v66.5a6 6 0 0 1-6 6h-99a6 6 0 0 1-6-6z" stroke="#000" stroke-opacity="0" stroke-width="3" fill="#fff" fill-opacity="0"/><use xlink:href="#q" transform="matrix(1,0,0,1,358.20616058082396,316.0661780362217) translate(14.641975308641975 39.34027777777778)"/><use xlink:href="#r" transform="matrix(1,0,0,1,358.20616058082396,316.0661780362217) translate(62.666666666666664 39.34027777777778)"/><path d="M353.96 929.24a.75.75 0 0 1 .75-.75h997a.75.75 0 0 1 .76.74.75.75 0 0 1-.75.75h-997a.75.75 0 0 1-.74-.76z" stroke="#5e5e5e" stroke-width="1.5" fill="none"/><path d="M656.66 866a6 6 0 0 1 6-6H976a6 6 0 0 1 6 6v108a6 6 0 0 1-6 6H662.67a6 6 0 0 1-6-6z" stroke="#5e5e5e" stroke-width="3" fill="#fff"/><path d="M818.16 860.75a.75.75 0 0 1 .75.75v117a.75.75 0 0 1-.74.75.75.75 0 0 1-.75-.75v-117a.75.75 0 0 1 .76-.75z" stroke="#5e5e5e" stroke-width="1.5" fill="none"/><path d="M660.88 866a6 6 0 0 1 6-6h139.56a6 6 0 0 1 6 6v108a6 6 0 0 1-6 6H666.88a6 6 0 0 1-6-6z" stroke="#000" stroke-opacity="0" stroke-width="3" fill="#fff" fill-opacity="0"/><use xlink:href="#o" transform="matrix(1,0,0,1,665.8797325432424,865) translate(2.6049382716049365 59.02777777777778)"/><path d="M824.6 866a6 6 0 0 1 6-6h140.06a6 6 0 0 1 6 6v108a6 6 0 0 1-6 6H830.6a6 6 0 0 1-6-6z" stroke="#000" stroke-opacity="0" stroke-width="3" fill="#fff" fill-opacity="0"/><use xlink:href="#p" transform="matrix(1,0,0,1,829.5987014486757,865) translate(-1.2160493827160508 59.94444444444444)"/><path d="M353.2 866a6 6 0 0 1 6-6h99.02a6 6 0 0 1 6 6v86.5a6 6 0 0 1-6 6h-99a6 6 0 0 1-6-6z" stroke="#000" stroke-opacity="0" stroke-width="3" fill="#fff" fill-opacity="0"/><use xlink:href="#q" transform="matrix(1,0,0,1,358.20616058082396,865) translate(14.641975308641975 48.37152777777778)"/><use xlink:href="#s" transform="matrix(1,0,0,1,358.20616058082396,865) translate(62.666666666666664 48.37152777777778)"/><path d="M710 1034.12a6 6 0 0 1 6-6h48a6 6 0 0 1 6 6v209.45a6 6 0 0 1-6 6h-48a6 6 0 0 1-6-6z" stroke="#5e5e5e" stroke-width="3" fill="#fff"/><path d="M710 1047.22a6 6 0 0 1 6-6h46.8a6 6 0 0 1 6 6v184.67a6 6 0 0 1-6 6H716a6 6 0 0 1-6-6z" stroke="#000" stroke-opacity="0" stroke-width="3" fill="#fff" fill-opacity="0"/><g><use xlink:href="#g" transform="matrix(1,0,0,1,715.0000000000001,1046.2205731368017) translate(18.32716049382716 17.77777777777778)"/><use xlink:href="#h" transform="matrix(1,0,0,1,715.0000000000001,1046.2205731368017) translate(24.5 44.44444444444444)"/><use xlink:href="#t" transform="matrix(1,0,0,1,715.0000000000001,1046.2205731368017) translate(12.154320987654321 71.11111111111111)"/><use xlink:href="#h" transform="matrix(1,0,0,1,715.0000000000001,1046.2205731368017) translate(24.5 97.77777777777777)"/><use xlink:href="#j" transform="matrix(1,0,0,1,715.0000000000001,1046.2205731368017) translate(18.32716049382716 124.44444444444446)"/><use xlink:href="#h" transform="matrix(1,0,0,1,715.0000000000001,1046.2205731368017) translate(24.5 151.11111111111111)"/><use xlink:href="#u" transform="matrix(1,0,0,1,715.0000000000001,1046.2205731368017) translate(12.987654320987655 177.77777777777777)"/></g><path d="M710.75 1081.2a.75.75 0 0 1 .75-.76h55.8a.75.75 0 0 1 .74.75.75.75 0 0 1-.75.74h-55.8a.75.75 0 0 1-.75-.75zM710.75 1131.07a.75.75 0 0 1 .75-.75h55.8a.75.75 0 0 1 .74.75.75.75 0 0 1-.75.75h-55.8a.75.75 0 0 1-.75-.75zM710.75 1185.68a.75.75 0 0 1 .75-.75h57a.75.75 0 0 1 .75.75.75.75 0 0 1-.75.75h-57a.75.75 0 0 1-.75-.75z" stroke="#5e5e5e" stroke-width="1.5" fill="none"/><path d="M740 981v27.15M740 981.03V980" stroke="#5e5e5e" stroke-width="2" fill="none"/><path d="M740 1023.42l-4.64-14.27h9.28z" stroke="#5e5e5e" stroke-width="2" fill="#5e5e5e"/><path d="M900 981v30.67M900 981.03V980" stroke="#5e5e5e" stroke-width="2" fill="none"/><path d="M900 1026.94l-4.64-14.27h9.28z" stroke="#5e5e5e" stroke-width="2" fill="#5e5e5e"/><path d="M360 472.1a6 6 0 0 1 6-6h289.73a6 6 0 0 1 6 6V814a6 6 0 0 1-6 6H366a6 6 0 0 1-6-6z" fill="none"/><path d="M661.73 820c-5.53 0-10-4.48-10-10V653.06c0-5.53-4.48-10-10-10 5.52 0 10-4.48 10-10V476.1c0-5.5 4.47-10 10-10" stroke="#5e5e5e" stroke-width="3" fill="none"/><g><use xlink:href="#a" transform="matrix(1,0,0,1,365,471.11199177738763) translate(14.580246913580254 176.44444444444443)"/><use xlink:href="#b" transform="matrix(1,0,0,1,365,471.11199177738763) translate(99.58024691358024 176.44444444444443)"/><use xlink:href="#v" transform="matrix(1,0,0,1,365,471.11199177738763) translate(131.61728395061726 176.44444444444443)"/></g><path d="M364.14 1029.26a6 6 0 0 1 6-6h289.72a6 6 0 0 1 6 6v220.6a6 6 0 0 1-6 6H370.14a6 6 0 0 1-6-6z" fill="none"/><path d="M665.86 1255.85c-5.52 0-10-4.48-10-10v-96.3c0-5.52-4.47-10-10-10 5.53 0 10-4.47 10-10v-96.3c0-5.5 4.48-10 10-10" stroke="#5e5e5e" stroke-width="3" fill="none"/><g><use xlink:href="#a" transform="matrix(1,0,0,1,369.1364136237452,1028.2610100042107) translate(14.580246913580254 115.94444444444446)"/><use xlink:href="#b" transform="matrix(1,0,0,1,369.1364136237452,1028.2610100042107) translate(99.58024691358024 115.94444444444446)"/><use xlink:href="#v" transform="matrix(1,0,0,1,369.1364136237452,1028.2610100042107) translate(131.61728395061726 115.94444444444446)"/></g><defs><path fill="#333" d="M199 0l-22-63H83L61 0H9l90-248h61L250 0h-51zm-33-102l-36-108c-10 38-24 72-36 108h72" id="w"/><path fill="#333" d="M135-150c-39-12-60 13-60 57V0H25l-1-190h47c2 13-1 29 3 40 6-28 27-53 61-41v41" id="x"/><path fill="#333" d="M185-48c-13 30-37 53-82 52C43 2 14-33 14-96s30-98 90-98c62 0 83 45 84 108H66c0 31 8 55 39 56 18 0 30-7 34-22zm-45-69c5-46-57-63-70-21-2 6-4 13-4 21h74" id="y"/><path fill="#333" d="M195-6C206 82 75 100 31 46c-4-6-6-13-8-21l49-6c3 16 16 24 34 25 40 0 42-37 40-79-11 22-30 35-61 35-53 0-70-43-70-97 0-56 18-96 73-97 30 0 46 14 59 34l2-30h47zm-90-29c32 0 41-27 41-63 0-35-9-62-40-62-32 0-39 29-40 63 0 36 9 62 39 62" id="z"/><path fill="#333" d="M25 0v-261h50V0H25" id="A"/><path fill="#333" d="M110-194c64 0 96 36 96 99 0 64-35 99-97 99-61 0-95-36-95-99 0-62 34-99 96-99zm-1 164c35 0 45-28 45-65 0-40-10-65-43-65-34 0-45 26-45 65 0 36 10 65 43 65" id="B"/><g id="a"><use transform="matrix(0.06172839506172839,0,0,0.06172839506172839,0,0)" xlink:href="#w"/><use transform="matrix(0.06172839506172839,0,0,0.06172839506172839,15.987654320987653,0)" xlink:href="#x"/><use transform="matrix(0.06172839506172839,0,0,0.06172839506172839,24.629629629629626,0)" xlink:href="#x"/><use transform="matrix(0.06172839506172839,0,0,0.06172839506172839,33.2716049382716,0)" xlink:href="#y"/><use transform="matrix(0.06172839506172839,0,0,0.06172839506172839,45.61728395061728,0)" xlink:href="#z"/><use transform="matrix(0.06172839506172839,0,0,0.06172839506172839,59.1358024691358,0)" xlink:href="#A"/><use transform="matrix(0.06172839506172839,0,0,0.06172839506172839,65.30864197530863,0)" xlink:href="#B"/></g><path fill="#333" d="M88-194c31-1 46 15 58 34l-1-101h50l1 261h-48c-2-10 0-23-3-31C134-8 116 4 84 4 32 4 16-41 15-95c0-56 19-97 73-99zm17 164c33 0 40-30 41-66 1-37-9-64-41-64s-38 30-39 65c0 43 13 65 39 65" id="C"/><g id="b"><use transform="matrix(0.06172839506172839,0,0,0.06172839506172839,0,0)" xlink:href="#C"/><use transform="matrix(0.06172839506172839,0,0,0.06172839506172839,13.518518518518517,0)" xlink:href="#y"/></g><path fill="#333" d="M135-194c52 0 70 43 70 98 0 56-19 99-73 100-30 1-46-15-58-35L72 0H24l1-261h50v104c11-23 29-37 60-37zM114-30c31 0 40-27 40-66 0-37-7-63-39-63s-41 28-41 65c0 36 8 64 40 64" id="D"/><path fill="#333" d="M25-224v-37h50v37H25zM75 22c2 45-34 59-81 51V38c22 5 31-5 31-27v-201h50V22" id="E"/><path fill="#333" d="M115-3C79 11 28 4 28-45v-112H4v-33h27l15-45h31v45h36v33H77v99c-1 23 16 31 38 25v30" id="F"/><path fill="#333" d="M137-138c1-29-70-34-71-4 15 46 118 7 119 86 1 83-164 76-172 9l43-7c4 19 20 25 44 25 33 8 57-30 24-41C81-84 22-81 20-136c-2-80 154-74 161-7" id="G"/><g id="c"><use transform="matrix(0.06172839506172839,0,0,0.06172839506172839,0,0)" xlink:href="#B"/><use transform="matrix(0.06172839506172839,0,0,0.06172839506172839,13.518518518518517,0)" xlink:href="#D"/><use transform="matrix(0.06172839506172839,0,0,0.06172839506172839,27.037037037037035,0)" xlink:href="#E"/><use transform="matrix(0.06172839506172839,0,0,0.06172839506172839,33.20987654320987,0)" xlink:href="#y"/><use transform="matrix(0.06172839506172839,0,0,0.06172839506172839,45.55555555555555,0)" xlink:href="#F"/><use transform="matrix(0.06172839506172839,0,0,0.06172839506172839,52.90123456790123,0)" xlink:href="#B"/><use transform="matrix(0.06172839506172839,0,0,0.06172839506172839,66.41975308641975,0)" xlink:href="#G"/></g><path fill="#333" d="M133-34C117-15 103 5 69 4 32 3 11-16 11-54c-1-60 55-63 116-61 1-26-3-47-28-47-18 1-26 9-28 27l-52-2c7-38 36-58 82-57s74 22 75 68l1 82c-1 14 12 18 25 15v27c-30 8-71 5-69-32zm-48 3c29 0 43-24 42-57-32 0-66-3-65 30 0 17 8 27 23 27" id="H"/><path fill="#333" d="M190-63c-7 42-38 67-86 67-59 0-84-38-90-98-12-110 154-137 174-36l-49 2c-2-19-15-32-35-32-30 0-35 28-38 64-6 74 65 87 74 30" id="I"/><path fill="#333" d="M114-157C55-157 80-60 75 0H25v-261h50l-1 109c12-26 28-41 61-42 86-1 58 113 63 194h-50c-7-57 23-157-34-157" id="J"/><g id="d"><use transform="matrix(0.06172839506172839,0,0,0.06172839506172839,0,0)" xlink:href="#z"/><use transform="matrix(0.06172839506172839,0,0,0.06172839506172839,13.518518518518517,0)" xlink:href="#B"/><use transform="matrix(0.06172839506172839,0,0,0.06172839506172839,27.037037037037035,0)" xlink:href="#A"/><use transform="matrix(0.06172839506172839,0,0,0.06172839506172839,33.20987654320987,0)" xlink:href="#C"/><use transform="matrix(0.06172839506172839,0,0,0.06172839506172839,46.72839506172839,0)" xlink:href="#D"/><use transform="matrix(0.06172839506172839,0,0,0.06172839506172839,60.24691358024691,0)" xlink:href="#H"/><use transform="matrix(0.06172839506172839,0,0,0.06172839506172839,72.5925925925926,0)" xlink:href="#I"/><use transform="matrix(0.06172839506172839,0,0,0.06172839506172839,84.93827160493828,0)" xlink:href="#J"/></g><path fill="#333" d="M186 0v-106H76V0H24v-248h52v99h110v-99h50V0h-50" id="K"/><path fill="#333" d="M25-224v-37h50v37H25zM25 0v-190h50V0H25" id="L"/><g id="e"><use transform="matrix(0.06172839506172839,0,0,0.06172839506172839,0,0)" xlink:href="#K"/><use transform="matrix(0.06172839506172839,0,0,0.06172839506172839,15.987654320987653,0)" xlink:href="#L"/><use transform="matrix(0.06172839506172839,0,0,0.06172839506172839,22.160493827160494,0)" xlink:href="#A"/><use transform="matrix(0.06172839506172839,0,0,0.06172839506172839,28.333333333333332,0)" xlink:href="#B"/><use transform="matrix(0.06172839506172839,0,0,0.06172839506172839,41.85185185185185,0)" xlink:href="#G"/></g><path fill="#333" d="M85 4C-2 5 27-109 22-190h50c7 57-23 150 33 157 60-5 35-97 40-157h50l1 190h-47c-2-12 1-28-3-38-12 25-28 42-61 42" id="M"/><path fill="#333" d="M110-194c64 0 96 36 96 99 0 64-35 99-97 99-61 0-95-36-95-99 0-62 34-99 96-99zm-1 164c35 0 45-28 45-65 0-40-10-65-43-65-34 0-45 26-45 65 0 36 10 65 43 65zM81-208v-5l45-51h45v8l-60 48H81" id="N"/><path fill="#333" d="M135-194c87-1 58 113 63 194h-50c-7-57 23-157-34-157-59 0-34 97-39 157H25l-1-190h47c2 12-1 28 3 38 12-26 28-41 61-42" id="O"/><g id="f"><use transform="matrix(0.06172839506172839,0,0,0.06172839506172839,0,0)" xlink:href="#y"/><use transform="matrix(0.06172839506172839,0,0,0.06172839506172839,12.345679012345679,0)" xlink:href="#E"/><use transform="matrix(0.06172839506172839,0,0,0.06172839506172839,18.51851851851852,0)" xlink:href="#y"/><use transform="matrix(0.06172839506172839,0,0,0.06172839506172839,30.864197530864196,0)" xlink:href="#I"/><use transform="matrix(0.06172839506172839,0,0,0.06172839506172839,43.20987654320987,0)" xlink:href="#M"/><use transform="matrix(0.06172839506172839,0,0,0.06172839506172839,56.72839506172839,0)" xlink:href="#I"/><use transform="matrix(0.06172839506172839,0,0,0.06172839506172839,69.07407407407408,0)" xlink:href="#L"/><use transform="matrix(0.06172839506172839,0,0,0.06172839506172839,75.24691358024691,0)" xlink:href="#N"/><use transform="matrix(0.06172839506172839,0,0,0.06172839506172839,88.76543209876543,0)" xlink:href="#O"/></g><path fill="#333" d="M126-127c33 6 58 20 58 59 0 88-139 92-164 29-3-8-5-16-6-25l32-3c6 27 21 44 54 44 32 0 52-15 52-46 0-38-36-46-79-43v-28c39 1 72-4 72-42 0-27-17-43-46-43-28 0-47 15-49 41l-32-3c6-42 35-63 81-64 48-1 79 21 79 65 0 36-21 52-52 59" id="P"/><use transform="matrix(0.06172839506172839,0,0,0.06172839506172839,0,0)" xlink:href="#P" id="g"/><path fill="#333" d="M64 0c3-98 48-159 88-221H18v-27h164v26C143-157 98-101 97 0H64" id="Q"/><use transform="matrix(0.06172839506172839,0,0,0.06172839506172839,0,0)" xlink:href="#Q" id="i"/><path fill="#333" d="M54-142c48-35 137-8 131 61C196 18 31 33 14-55l32-4c7 23 22 37 52 37 35-1 51-22 54-58 4-55-73-65-99-34H22l8-134h141v27H59" id="R"/><use transform="matrix(0.06172839506172839,0,0,0.06172839506172839,0,0)" xlink:href="#R" id="j"/><use transform="matrix(0.06172839506172839,0,0,0.06172839506172839,0,0)" xlink:href="#R" id="k"/><path fill="#333" d="M177-190C167-65 218 103 67 71c-23-6-38-20-44-43l32-5c15 47 100 32 89-28v-30C133-14 115 1 83 1 29 1 15-40 15-95c0-56 16-97 71-98 29-1 48 16 59 35 1-10 0-23 2-32h30zM94-22c36 0 50-32 50-73 0-42-14-75-50-75-39 0-46 34-46 75s6 73 46 73" id="S"/><path fill="#333" d="M100-194c62-1 85 37 85 99 1 63-27 99-86 99S16-35 15-95c0-66 28-99 85-99zM99-20c44 1 53-31 53-75 0-43-8-75-51-75s-53 32-53 75 10 74 51 75" id="T"/><path fill="#333" d="M24 0v-261h32V0H24" id="U"/><path fill="#333" d="M85-194c31 0 48 13 60 33l-1-100h32l1 261h-30c-2-10 0-23-3-31C134-8 116 4 85 4 32 4 16-35 15-94c0-66 23-100 70-100zm9 24c-40 0-46 34-46 75 0 40 6 74 45 74 42 0 51-32 51-76 0-42-9-74-50-73" id="V"/><path fill="#333" d="M115-194c53 0 69 39 70 98 0 66-23 100-70 100C84 3 66-7 56-30L54 0H23l1-261h32v101c10-23 28-34 59-34zm-8 174c40 0 45-34 45-75 0-40-5-75-45-74-42 0-51 32-51 76 0 43 10 73 51 73" id="W"/><path fill="#333" d="M141-36C126-15 110 5 73 4 37 3 15-17 15-53c-1-64 63-63 125-63 3-35-9-54-41-54-24 1-41 7-42 31l-33-3c5-37 33-52 76-52 45 0 72 20 72 64v82c-1 20 7 32 28 27v20c-31 9-61-2-59-35zM48-53c0 20 12 33 32 33 41-3 63-29 60-74-43 2-92-5-92 41" id="X"/><path fill="#333" d="M96-169c-40 0-48 33-48 73s9 75 48 75c24 0 41-14 43-38l32 2c-6 37-31 61-74 61-59 0-76-41-82-99-10-93 101-131 147-64 4 7 5 14 7 22l-32 3c-4-21-16-35-41-35" id="Y"/><path fill="#333" d="M106-169C34-169 62-67 57 0H25v-261h32l-1 103c12-21 28-36 61-36 89 0 53 116 60 194h-32v-121c2-32-8-49-39-48" id="Z"/><path fill="#333" d="M87 75C49 33 22-17 22-94c0-76 28-126 65-167h31c-38 41-64 92-64 168S80 34 118 75H87" id="aa"/><path fill="#333" d="M27 0v-27h64v-190l-56 39v-29l58-41h29v221h61V0H27" id="ab"/><path fill="#333" d="M33-261c38 41 65 92 65 168S71 34 33 75H2C39 34 66-17 66-93S39-220 2-261h31" id="ac"/><g id="l"><use transform="matrix(0.06172839506172839,0,0,0.06172839506172839,0,0)" xlink:href="#S"/><use transform="matrix(0.06172839506172839,0,0,0.06172839506172839,12.345679012345679,0)" xlink:href="#T"/><use transform="matrix(0.06172839506172839,0,0,0.06172839506172839,24.691358024691358,0)" xlink:href="#U"/><use transform="matrix(0.06172839506172839,0,0,0.06172839506172839,29.5679012345679,0)" xlink:href="#V"/><use transform="matrix(0.06172839506172839,0,0,0.06172839506172839,41.913580246913575,0)" xlink:href="#W"/><use transform="matrix(0.06172839506172839,0,0,0.06172839506172839,54.25925925925925,0)" xlink:href="#X"/><use transform="matrix(0.06172839506172839,0,0,0.06172839506172839,66.60493827160494,0)" xlink:href="#Y"/><use transform="matrix(0.06172839506172839,0,0,0.06172839506172839,77.71604938271605,0)" xlink:href="#Z"/><use transform="matrix(0.06172839506172839,0,0,0.06172839506172839,90.06172839506173,0)" xlink:href="#aa"/><use transform="matrix(0.06172839506172839,0,0,0.06172839506172839,97.40740740740742,0)" xlink:href="#ab"/><use transform="matrix(0.06172839506172839,0,0,0.06172839506172839,109.7530864197531,0)" xlink:href="#P"/><use transform="matrix(0.06172839506172839,0,0,0.06172839506172839,122.09876543209879,0)" xlink:href="#ac"/></g><path fill="#333" d="M134-131c28 9 52 24 51 62-1 50-34 73-85 73S17-19 16-69c0-36 21-54 49-61-75-25-45-126 34-121 46 3 78 18 79 63 0 33-17 51-44 57zm-34-11c31 1 46-15 46-44 0-28-17-43-47-42-29 0-46 13-45 42 1 28 16 44 46 44zm1 122c35 0 51-18 51-52 0-30-18-46-53-46-33 0-51 17-51 47 0 34 19 51 53 51" id="ad"/><g id="m"><use transform="matrix(0.06172839506172839,0,0,0.06172839506172839,0,0)" xlink:href="#S"/><use transform="matrix(0.06172839506172839,0,0,0.06172839506172839,12.345679012345679,0)" xlink:href="#T"/><use transform="matrix(0.06172839506172839,0,0,0.06172839506172839,24.691358024691358,0)" xlink:href="#U"/><use transform="matrix(0.06172839506172839,0,0,0.06172839506172839,29.5679012345679,0)" xlink:href="#V"/><use transform="matrix(0.06172839506172839,0,0,0.06172839506172839,41.913580246913575,0)" xlink:href="#W"/><use transform="matrix(0.06172839506172839,0,0,0.06172839506172839,54.25925925925925,0)" xlink:href="#X"/><use transform="matrix(0.06172839506172839,0,0,0.06172839506172839,66.60493827160494,0)" xlink:href="#Y"/><use transform="matrix(0.06172839506172839,0,0,0.06172839506172839,77.71604938271605,0)" xlink:href="#Z"/><use transform="matrix(0.06172839506172839,0,0,0.06172839506172839,90.06172839506173,0)" xlink:href="#aa"/><use transform="matrix(0.06172839506172839,0,0,0.06172839506172839,97.40740740740742,0)" xlink:href="#ad"/><use transform="matrix(0.06172839506172839,0,0,0.06172839506172839,109.7530864197531,0)" xlink:href="#ac"/></g><path fill="#333" d="M155-56V0h-30v-56H8v-25l114-167h33v167h35v25h-35zm-30-156c-27 46-58 90-88 131h88v-131" id="ae"/><g id="n"><use transform="matrix(0.06172839506172839,0,0,0.06172839506172839,0,0)" xlink:href="#S"/><use transform="matrix(0.06172839506172839,0,0,0.06172839506172839,12.345679012345679,0)" xlink:href="#T"/><use transform="matrix(0.06172839506172839,0,0,0.06172839506172839,24.691358024691358,0)" xlink:href="#U"/><use transform="matrix(0.06172839506172839,0,0,0.06172839506172839,29.5679012345679,0)" xlink:href="#V"/><use transform="matrix(0.06172839506172839,0,0,0.06172839506172839,41.913580246913575,0)" xlink:href="#W"/><use transform="matrix(0.06172839506172839,0,0,0.06172839506172839,54.25925925925925,0)" xlink:href="#X"/><use transform="matrix(0.06172839506172839,0,0,0.06172839506172839,66.60493827160494,0)" xlink:href="#Y"/><use transform="matrix(0.06172839506172839,0,0,0.06172839506172839,77.71604938271605,0)" xlink:href="#Z"/><use transform="matrix(0.06172839506172839,0,0,0.06172839506172839,90.06172839506173,0)" xlink:href="#aa"/><use transform="matrix(0.06172839506172839,0,0,0.06172839506172839,97.40740740740742,0)" xlink:href="#ae"/><use transform="matrix(0.06172839506172839,0,0,0.06172839506172839,109.7530864197531,0)" xlink:href="#ac"/></g><path fill="#333" d="M16-82v-28h88v28H16" id="af"/><path fill="#333" d="M110-160c48 1 74 30 74 79 0 53-28 85-80 85-65 0-83-55-86-122-5-90 50-162 133-122 14 7 22 21 27 39l-31 6c-5-40-67-38-82-6-9 19-15 44-15 74 11-20 30-34 60-33zm-7 138c34 0 49-23 49-58s-16-56-50-56c-29 0-50 16-49 49 1 36 15 65 50 65" id="ag"/><g id="o"><use transform="matrix(0.06172839506172839,0,0,0.06172839506172839,0,0)" xlink:href="#S"/><use transform="matrix(0.06172839506172839,0,0,0.06172839506172839,12.345679012345679,0)" xlink:href="#T"/><use transform="matrix(0.06172839506172839,0,0,0.06172839506172839,24.691358024691358,0)" xlink:href="#U"/><use transform="matrix(0.06172839506172839,0,0,0.06172839506172839,29.5679012345679,0)" xlink:href="#V"/><use transform="matrix(0.06172839506172839,0,0,0.06172839506172839,41.913580246913575,0)" xlink:href="#W"/><use transform="matrix(0.06172839506172839,0,0,0.06172839506172839,54.25925925925925,0)" xlink:href="#X"/><use transform="matrix(0.06172839506172839,0,0,0.06172839506172839,66.60493827160494,0)" xlink:href="#Y"/><use transform="matrix(0.06172839506172839,0,0,0.06172839506172839,77.71604938271605,0)" xlink:href="#Z"/><use transform="matrix(0.06172839506172839,0,0,0.06172839506172839,90.06172839506173,0)" xlink:href="#aa"/><use transform="matrix(0.06172839506172839,0,0,0.06172839506172839,97.40740740740742,0)" xlink:href="#af"/><use transform="matrix(0.06172839506172839,0,0,0.06172839506172839,104.7530864197531,0)" xlink:href="#ab"/><use transform="matrix(0.06172839506172839,0,0,0.06172839506172839,117.09876543209879,0)" xlink:href="#ag"/><use transform="matrix(0.06172839506172839,0,0,0.06172839506172839,129.44444444444446,0)" xlink:href="#ac"/></g><path fill="#333" d="M206 0h-36l-40-164L89 0H53L-1-190h32L70-26l43-164h34l41 164 42-164h31" id="ah"/><g id="p"><use transform="matrix(0.06172839506172839,0,0,0.06172839506172839,0,0)" xlink:href="#S"/><use transform="matrix(0.06172839506172839,0,0,0.06172839506172839,12.345679012345679,0)" xlink:href="#T"/><use transform="matrix(0.06172839506172839,0,0,0.06172839506172839,24.691358024691358,0)" xlink:href="#U"/><use transform="matrix(0.06172839506172839,0,0,0.06172839506172839,29.5679012345679,0)" xlink:href="#V"/><use transform="matrix(0.06172839506172839,0,0,0.06172839506172839,41.913580246913575,0)" xlink:href="#W"/><use transform="matrix(0.06172839506172839,0,0,0.06172839506172839,54.25925925925925,0)" xlink:href="#X"/><use transform="matrix(0.06172839506172839,0,0,0.06172839506172839,66.60493827160494,0)" xlink:href="#Y"/><use transform="matrix(0.06172839506172839,0,0,0.06172839506172839,77.71604938271605,0)" xlink:href="#Z"/><use transform="matrix(0.06172839506172839,0,0,0.06172839506172839,90.06172839506173,0)" xlink:href="#aa"/><use transform="matrix(0.06172839506172839,0,0,0.06172839506172839,97.40740740740742,0)" xlink:href="#X"/><use transform="matrix(0.06172839506172839,0,0,0.06172839506172839,109.7530864197531,0)" xlink:href="#ah"/><use transform="matrix(0.06172839506172839,0,0,0.06172839506172839,125.74074074074076,0)" xlink:href="#V"/><use transform="matrix(0.06172839506172839,0,0,0.06172839506172839,138.08641975308643,0)" xlink:href="#ac"/></g><g id="q"><use transform="matrix(0.06172839506172839,0,0,0.06172839506172839,0,0)" xlink:href="#K"/><use transform="matrix(0.06172839506172839,0,0,0.06172839506172839,15.987654320987653,0)" xlink:href="#L"/><use transform="matrix(0.06172839506172839,0,0,0.06172839506172839,22.160493827160494,0)" xlink:href="#A"/><use transform="matrix(0.06172839506172839,0,0,0.06172839506172839,28.333333333333332,0)" xlink:href="#B"/></g><path fill="#333" d="M160-152l-12 59h37v26h-43L128 0h-28l14-67H60L46 0H20l13-67H6v-26h33l13-59H15v-26h42l15-67h27l-15 67h54l15-67h27l-14 67h28v26h-34zm-81 0L66-93h55l12-59H79" id="ai"/><path fill="#333" d="M23 0v-37h61v-169l-59 37v-38l62-41h46v211h57V0H23" id="aj"/><g id="r"><use transform="matrix(0.06172839506172839,0,0,0.06172839506172839,0,0)" xlink:href="#ai"/><use transform="matrix(0.06172839506172839,0,0,0.06172839506172839,12.345679012345679,0)" xlink:href="#aj"/></g><path fill="#333" d="M182-182c0 78-84 86-111 141h115V0H12c-6-101 99-100 120-180 1-22-12-31-33-32-23 0-32 14-35 34l-49-3c5-45 32-70 84-70 51 0 83 22 83 69" id="ak"/><g id="s"><use transform="matrix(0.06172839506172839,0,0,0.06172839506172839,0,0)" xlink:href="#ai"/><use transform="matrix(0.06172839506172839,0,0,0.06172839506172839,12.345679012345679,0)" xlink:href="#ak"/></g><g id="t"><use transform="matrix(0.06172839506172839,0,0,0.06172839506172839,0,0)" xlink:href="#ab"/><use transform="matrix(0.06172839506172839,0,0,0.06172839506172839,12.345679012345679,0)" xlink:href="#P"/></g><g id="u"><use transform="matrix(0.06172839506172839,0,0,0.06172839506172839,0,0)" xlink:href="#ab"/><use transform="matrix(0.06172839506172839,0,0,0.06172839506172839,10.679012345679013,0)" xlink:href="#ab"/></g><g id="v"><use transform="matrix(0.06172839506172839,0,0,0.06172839506172839,0,0)" xlink:href="#G"/><use transform="matrix(0.06172839506172839,0,0,0.06172839506172839,12.345679012345679,0)" xlink:href="#B"/><use transform="matrix(0.06172839506172839,0,0,0.06172839506172839,25.864197530864196,0)" xlink:href="#A"/><use transform="matrix(0.06172839506172839,0,0,0.06172839506172839,32.03703703703704,0)" xlink:href="#M"/><use transform="matrix(0.06172839506172839,0,0,0.06172839506172839,45.55555555555556,0)" xlink:href="#I"/><use transform="matrix(0.06172839506172839,0,0,0.06172839506172839,57.901234567901234,0)" xlink:href="#L"/><use transform="matrix(0.06172839506172839,0,0,0.06172839506172839,64.07407407407408,0)" xlink:href="#B"/><use transform="matrix(0.06172839506172839,0,0,0.06172839506172839,77.5925925925926,0)" xlink:href="#O"/><use transform="matrix(0.06172839506172839,0,0,0.06172839506172839,91.11111111111111,0)" xlink:href="#y"/><use transform="matrix(0.06172839506172839,0,0,0.06172839506172839,103.4567901234568,0)" xlink:href="#G"/></g></defs></g></svg>